<svg xmlns="http://www.w3.org/2000/svg" width="78.054" height="77.814"><g data-name="Group 21880" clip-path="url(&quot;#a&quot;)"><path d="M15.028 20.851H2.792v1.443c0 .698.016 1.397 0 2.095-.02.835-.62 1.426-1.406 1.42-.79-.006-1.37-.603-1.375-1.445-.01-1.59-.022-3.181.005-4.77.006-.342.11-.714.275-1.015C3.074 13.463 5.86 8.349 8.679 3.252 9.855 1.126 11.709.012 14.144.01c13.57-.014 27.14-.005 40.71-.004 2.944 0 5.887.002 8.83-.005 2.622-.007 4.548 1.147 5.804 3.443 2.737 5.005 5.484 10.006 8.205 15.02.203.375.33.84.334 1.265.028 3.165.036 6.332.01 9.497-.022 2.69-1.072 4.933-3.096 6.705-.253.223-.331.442-.331.761.007 11.237.009 22.473-.001 33.71 0 .739-.011 1.498-.173 2.212-.712 3.132-3.32 5.19-6.537 5.195-5.35.01-10.702.003-16.052.003H10.245c-2.953-.001-5.434-1.662-6.38-4.34a6.98 6.98 0 0 1-.412-2.263 9277.745 9277.745 0 0 1-.006-33.798c.001-.74-.14-1.274-.72-1.843C1.38 34.25.452 32.634.107 30.747c-.068-.38-.03-.807.07-1.183.158-.605.79-.98 1.413-.93.61.048 1.085.5 1.231 1.114.151.633.267 1.29.523 1.88 1.159 2.668 4.027 4.114 6.893 3.523 2.816-.58 4.798-3.021 4.81-5.953.011-2.63.003-5.261.002-7.892 0-.144-.013-.288-.021-.455m33.445 15.316v1.937c0 9.811.004 19.622-.002 29.432-.001 1.701-1.173 3.16-2.84 3.47-.692.129-1.418.1-2.13.1-9.974.005-19.948-.002-29.922.004-2.324.002-3.865-1.504-3.865-3.835-.002-7.878 0-15.757 0-23.635 0-.178.002-.358.03-.532a1.378 1.378 0 0 1 1.281-1.166 1.365 1.365 0 0 1 1.422 1.045c.057.226.06.47.061.706.003 7.819.002 15.638.002 23.456 0 .959.22 1.18 1.18 1.18h30.859c.893 0 1.142-.246 1.142-1.136V35.665c0-.142-.014-.282-.025-.504-2.07 2.084-4.494 3.096-7.365 2.86-2.893-.236-5.129-1.643-6.8-4.02-1.838 2.636-4.312 4.095-7.525 4.098-3.21.003-5.682-1.465-7.512-4.062-2.594 3.52-5.99 4.737-10.249 3.692V70.965c.001 2.414 1.652 4.063 4.064 4.063H65.53c.016-.151.035-.252.035-.353.016-6.734.06-13.468.033-20.201-.014-3.636-3.518-6.33-7.062-5.526-2.737.62-4.558 2.926-4.571 5.825-.023 4.861-.03 9.722-.043 14.583 0 .163.006.328-.011.49a1.4 1.4 0 0 1-1.308 1.244c-.65.04-1.275-.413-1.419-1.055-.048-.214-.042-.443-.042-.665.008-4.771.018-9.543.031-14.314.001-.386.02-.773.055-1.158.665-7.337 8.371-9.612 13.26-6.543 2.739 1.718 3.893 4.333 3.9 7.477.014 6.511-.02 13.022-.032 19.532v.617c.226-.036.4-.052.569-.095 1.774-.455 2.908-1.97 2.909-3.897.002-10.926 0-21.851 0-32.777v-.502c-1.954.558-3.855.555-5.73-.127-1.888-.687-3.368-1.895-4.485-3.574-2.84 4.403-8.927 5.449-13.146 2.158M3.768 18.014h70.497c-.095-.187-.162-.33-.239-.47-2.324-4.249-4.66-8.492-6.97-12.749-.74-1.364-1.84-2.017-3.393-2.017-16.422.01-32.844.01-49.266 0-1.552 0-2.658.644-3.398 2.01-1.898 3.5-3.82 6.986-5.732 10.478-.49.896-.978 1.794-1.499 2.748m29.152 2.838c-.013.112-.031.197-.031.282 0 2.763-.054 5.527.021 8.288.062 2.261 1.156 4.005 3.125 5.122 4.061 2.303 9.078-.633 9.122-5.328.025-2.659.005-5.317.004-7.976 0-.127-.02-.254-.033-.388H32.92Zm-15.052-.008c-.013.198-.03.345-.03.49 0 2.632 0 5.263.008 7.894 0 .325.025.655.08.976.557 3.17 3.391 5.387 6.52 5.111 3.236-.286 5.645-2.892 5.658-6.14.01-2.632.002-5.263 0-7.894 0-.141-.016-.282-.026-.437h-12.21Zm57.39.013H63.025c-.01.136-.024.239-.024.342 0 2.69-.002 5.38.002 8.07 0 .265.015.536.056.799.504 3.215 3.325 5.494 6.493 5.25 3.256-.252 5.687-2.888 5.7-6.187.006-1.427.005-2.853.006-4.28v-3.994m-27.288-.012c-.012.124-.025.198-.025.271 0 2.734-.01 5.469.011 8.203.004.498.093 1.009.227 1.49a6.121 6.121 0 0 0 6.642 4.422c3.07-.385 5.347-2.935 5.377-6.076.026-2.644.006-5.29.004-7.934 0-.126-.024-.253-.036-.376h-12.2Z" fill="#fff" fill-rule="evenodd" data-name="Path 33719"/><path d="M24.248 57.896H38.6c.98.001 1.645.675 1.537 1.545a1.373 1.373 0 0 1-1.27 1.225c-.193.018-.387.01-.58.01-4.504 0-9.007.001-13.51-.001-2.593-.001-4.026-2.32-2.711-4.556.718-1.223.873-2.352.555-3.728-.683-2.95-1.207-5.938-1.781-8.913-.058-.3-.175-.426-.477-.461-.663-.078-1.323-.188-1.985-.285-.897-.132-1.459-.784-1.352-1.57.113-.833.798-1.316 1.724-1.19 1.03.141 2.06.29 3.085.462.815.137 1.332.623 1.515 1.435.117.52.215 1.044.328 1.597h14.824c2.03.001 3.135 1.545 2.476 3.458-.76 2.205-1.519 4.41-2.282 6.614-.55 1.589-1.713 2.417-3.402 2.418-3.195.003-6.391.007-9.586-.006-.33-.002-.511.099-.65.395-.223.48-.488.942-.809 1.551m-.024-11.618 1.353 6.87c.11.013.168.025.225.025 3.18.002 6.36-.001 9.541.006.415 0 .61-.212.735-.575.68-1.996 1.37-3.99 2.054-5.984.036-.105.052-.217.081-.342H24.224Z" fill="#fff" fill-rule="evenodd" data-name="Path 33720"/><path d="M28.597 63.178c-.005 1.064-.87 1.939-1.92 1.942-1.063.003-1.938-.9-1.924-1.983.014-1.058.901-1.935 1.943-1.92 1.05.014 1.905.897 1.9 1.961" fill="#fff" fill-rule="evenodd" data-name="Path 33721"/><path d="M37.093 63.154c0 1.099-.86 1.971-1.935 1.962-1.043-.009-1.912-.9-1.908-1.956.005-1.054.885-1.943 1.925-1.944 1.05 0 1.918.876 1.918 1.938" fill="#fff" fill-rule="evenodd" data-name="Path 33722"/></g><defs><clipPath id="a"><path d="M0 0h78.053v77.814H0V0z" data-name="Rectangle 7028"/></clipPath></defs></svg>