<svg xmlns="http://www.w3.org/2000/svg" width="94.884" height="100.195"><g data-name="Group 21908" clip-path="url(&quot;#a&quot;)"><path d="M69.864 49.123c-2.23-8.36-6.48-15.67-11.93-22.32-3.72-4.54-7.94-8.53-13.15-11.34-2.85-1.54-5.86-2.64-9.18-2.25-2.64.32-4.67 1.59-5.88 4.03-4.98 10.11-9.96 20.23-14.97 30.33-.3.61-.82 1.19-1.37 1.58-2.6 1.82-5.26 3.54-7.87 5.36-3.5 2.44-5.4 5.8-5.51 10.1-.18 7.42 5.97 13.49 13.38 13.27 2.32-.07 4.41-.81 6.41-2.05.25.35.48.67.7.99 4.41 6.49 8.8 13 13.23 19.48 2.8 4.12 7.85 5.1 11.66 2.31 3.39-2.48 4.13-7.25 1.65-10.96-3.16-4.72-6.38-9.42-9.57-14.14-.9-1.32-1.79-2.64-2.78-4.12.39-.07.61-.12.83-.14 9.26-.74 18.52-1.49 27.78-2.21 1.89-.14 3.47-.88 4.78-2.21 1.35-1.38 2.09-3.07 2.47-4.93.75-3.65.26-7.24-.68-10.78m-53.22 24.03c-4.07 2.24-8.83.58-11.46-3.69-2.38-3.87-1.49-8.81 2.17-11.47 2.57-1.86 5.22-3.59 7.93-5.44 3.4 5.01 6.71 9.9 10.1 14.89-2.94 1.94-5.72 4.04-8.74 5.71m27.14 16.57c1.77 2.62.62 5.82-2.32 6.52-1.69.41-3.33-.3-4.46-1.95-3.84-5.65-7.67-11.31-11.51-16.96-.81-1.19-1.61-2.38-2.47-3.65 1.87-1.27 3.61-2.48 5.38-3.65.91-.6 1.78-.38 2.39.52 4.33 6.39 8.67 12.77 12.99 19.17m.76-25.03c-4.73.37-9.46.72-14.18 1.13-.94.08-1.51-.09-2.08-.94-3.17-4.81-6.43-9.56-9.68-14.31-.42-.6-.5-1.05-.15-1.75 3.2-6.44 6.35-12.91 9.51-19.37.14-.28.3-.55.45-.81 3.73 14.68 11.71 26.42 24.02 35.4-2.69.22-5.29.44-7.89.65m22.04-6.37a8.804 8.804 0 0 1-1.65 3.36c-1.11 1.37-2.67 1.89-4.5 1.48-3.3-.76-6.15-2.43-8.71-4.54-9.25-7.64-15.67-17.18-18.96-28.78-.22-.75-.37-1.52-.48-2.3-.17-1.13-.26-2.27-.39-3.42.09-.88.11-1.77.27-2.63.64-3.46 3.08-5.05 6.52-4.25 3.09.72 5.74 2.33 8.22 4.23 5.52 4.21 9.78 9.52 13.39 15.38 2.69 4.37 4.93 8.93 6.03 13.98.54 2.48.88 5 .26 7.49" fill="#fff" fill-rule="evenodd" data-name="Path 33766"/><path d="M89.754 16.483c-.48.67-.74 1.33-1.22 1.65-4.42 2.96-8.87 5.88-13.33 8.78-.98.63-2.2.34-2.78-.54-.61-.92-.37-2.06.65-2.73 4.41-2.91 8.84-5.81 13.26-8.71.69-.45 1.46-.58 2.11-.09.5.37.81 1 1.31 1.64" fill="#fff" fill-rule="evenodd" data-name="Path 33767"/><path d="M94.854 41.213c-.21 1.14-1.25 1.81-2.53 1.59-4.72-.85-9.45-1.71-14.18-2.56-.45-.08-.9-.15-1.34-.27-1.02-.28-1.63-1.17-1.49-2.11.16-1.03 1-1.7 2.25-1.65 2.61.46 5.37.96 8.14 1.45 2.41.43 4.82.88 7.24 1.3 1.31.23 2.11 1.14 1.91 2.25" fill="#fff" fill-rule="evenodd" data-name="Path 33768"/><path d="M67.704 2.353c-.48 4.66-.96 9.31-1.45 13.97-.14 1.42-.98 2.18-2.21 2.03-1.12-.13-1.72-1.03-1.6-2.39.01-.1.02-.19.04-.29h-.02l1.41-13.77c.14-1.28 1-2.01 2.16-1.89 1.14.12 1.8 1.06 1.67 2.34" fill="#fff" fill-rule="evenodd" data-name="Path 33769"/><path d="M52.654 50.703c-.2.16-.41.32-.63.47-.99.65-2.15.47-2.78-.42-.6-.85-.44-1.98.49-2.69 1.52-1.16 2.54-2.61 2.8-4.54.35-2.68-.58-4.85-2.78-6.38-2.16-1.51-4.5-1.59-6.87-.42-.26.12-.5.3-.76.43-1.01.51-2.11.21-2.64-.72-.5-.89-.24-1.97.66-2.58 1.75-1.19 3.69-1.77 4.92-1.78 5.45.02 9.39 2.79 10.88 7.03 1.46 4.16.15 8.78-3.29 11.6" fill="#fff" fill-rule="evenodd" data-name="Path 33770"/></g><defs><clipPath id="a"><path d="M0 0h94.884v100.195H0V0z" data-name="Rectangle 7054"/></clipPath></defs></svg>