<svg xmlns="http://www.w3.org/2000/svg" width="86.078" height="86.135"><g data-name="Group 21910" clip-path="url(&quot;#a&quot;)"><path d="M83.062 47.749c-1.477-.365-2.262-1.29-2.277-2.588-.016-1.29.785-2.332 2.215-2.643.987-.218 1.19-.77.995-1.625a19.756 19.756 0 0 0-2.69-6.428c-.45-.7-.971-.84-1.71-.404-1.36.793-2.611.668-3.528-.272-.91-.948-.995-2.068-.203-3.444.428-.722.311-1.259-.396-1.71a19.967 19.967 0 0 0-6.436-2.689c-.917-.21-1.368.085-1.64.987-.194.645-.622 1.22-.94 1.835-.125-.055-.242-.11-.366-.156v-1.096c0-5.962.008-11.924 0-17.893C66.071 3.863 62.2.008 56.432 0c-9.6 0-19.191 0-28.783.008-5.713 0-9.545 3.84-9.56 9.576-.008 3.762 0 7.524-.008 11.286 0 .358-.024.723-.04 1.034-.163.07-.225.117-.287.117-1.725.015-3.451.007-5.184.039-2.806.038-4.579 1.803-4.594 4.586-.016 3.933-.016 7.858 0 11.791.015 2.814 1.842 4.617 4.671 4.625 1.765.008 3.521 0 5.441 0v1.337c0 10.742-.015 21.484 0 32.234.008 5.643 3.879 9.49 9.545 9.49 9.623.016 19.254.016 28.885-.007.84 0 1.702-.062 2.518-.256 4.267-1.003 7.011-4.57 7.042-9.134.031-4.679.008-9.358.008-14.037 0-.35.031-.7.054-1.058.11-.038.226-.077.335-.124.318.622.723 1.22.932 1.873.25.785.646 1.166 1.477.98a20.24 20.24 0 0 0 6.537-2.697c.747-.475.894-1.011.428-1.78-.785-1.33-.676-2.496.249-3.436.94-.948 2.114-1.05 3.52-.226.708.405 1.213.28 1.64-.373a19.298 19.298 0 0 0 2.76-6.614c.171-.793-.124-1.283-.956-1.485M27.51 2.005c9.615-.015 19.238-.007 28.853-.007 4.773.007 7.719 2.969 7.719 7.741v1.197H20.21c-.918-4.912 2.355-8.923 7.298-8.93m26.304 28.44c.7 1.236.59 2.457-.296 3.358-.878.894-2.16 1.034-3.358.358-1.041-.583-1.445-.567-1.95.513a68.666 68.666 0 0 0-2.535 6.055c-.412 1.135-.116 1.461 1.058 1.803 1.305.373 2.122 1.423 2.09 2.659-.03 1.228-.847 2.207-2.106 2.541-1.127.304-1.454.653-1.065 1.718.777 2.122 1.687 4.19 2.612 6.25.365.824 1.002.971 1.834.45 1.244-.785 2.51-.621 3.428.32.886.916.987 2.098.28 3.357-.536.948-.498 1.415.513 1.881 2.044.948 4.15 1.772 6.25 2.596.878.342 1.43-.039 1.616-.971.202-.995.715-1.726 1.842-2.045v6.747H20.14V43.062h1.073c4.337 0 8.675.008 13.02 0 3.023 0 4.803-1.772 4.811-4.788.008-3.801.008-7.594 0-11.387-.008-3.102-1.741-4.827-4.866-4.835-4.275-.008-8.542 0-12.817 0h-1.19v-8.947h43.832v15.857c-.995-.241-1.516-.91-1.78-1.842-.358-1.267-.63-1.54-1.866-1.096-2.06.738-4.073 1.609-6.055 2.541-1.002.475-1.033.925-.49 1.881M12.617 41.041c-1.718 0-2.62-.902-2.627-2.635-.008-2.682.008-5.356.016-8.037 0-.062.03-.125.085-.319 1.135 0 2.309-.015 3.482.008.715.008 1.368-.14 1.384-.972.031-.894-.645-1.065-1.4-1.057-1.15.016-2.292 0-3.544 0 0-.7-.054-1.337.016-1.959.109-1.026.886-1.803 1.912-1.958.427-.07.878-.07 1.314-.07 5.526-.008 11.053.007 16.58-.008 7.834-.016 7.228-.599 7.205 7.252-.008 1.555 0 3.101 0 4.78h-8.62c-.692 0-1.353.101-1.36.98-.008.878.637 1.002 1.344 1.002h7.827c.234 0 .467.04.747.063.116 1.943-.786 2.93-2.597 2.93-7.252.008-14.504.008-21.764 0m51.426 36.346c-.179 3.925-3.28 6.731-7.369 6.74-9.732.015-19.463.007-29.187 0a9.5 9.5 0 0 1-1.82-.187c-2.976-.583-5.378-3.21-5.518-6.234-.116-2.495-.023-4.99-.023-7.548h43.94c0 2.495.086 4.866-.023 7.23m17.574-26.895c-.513 1.166-.979 2.355-1.453 3.505-5.138-.824-7.672 1.68-6.444 6.452-1.438.606-2.907 1.228-4.36 1.834-2.231-4.5-7.408-3.855-9.064.031-1.344-.583-2.697-1.158-4.034-1.78-.148-.07-.28-.435-.24-.637.815-4.5-1.859-6.98-6.569-5.853-.513-1.282-1.073-2.573-1.539-3.902-.078-.21.148-.692.365-.832 3.413-2.13 3.413-6.25.016-8.356-.233-.14-.443-.668-.358-.917.436-1.274.972-2.51 1.5-3.824 4.532 1.516 7.96-2.138 6.46-6.42 1.438-.599 2.891-1.205 4.314-1.796 2.977 4.19 6.7 4.22 9.102-.008 1.446.591 2.922 1.19 4.384 1.788-1.54 4.05 1.764 7.99 6.436 6.428.606 1.454 1.212 2.923 1.733 4.167-.917.886-1.78 1.476-2.332 2.285-1.5 2.2-.754 5.161 1.594 6.49.66.373.761.707.49 1.345" fill="#fff" fill-rule="evenodd" data-name="Path 33771"/><path d="M6.103 61.11C2.753 61.057.04 63.669 0 66.98c-.047 3.373 2.627 6.116 5.97 6.132 3.272.008 6.016-2.72 6.031-6 .008-3.25-2.643-5.947-5.9-6.001m-.17 9.996c-2.2-.04-3.95-1.85-3.926-4.066a3.963 3.963 0 0 1 4.034-3.948A4.023 4.023 0 0 1 9.99 67.15c-.031 2.184-1.881 3.995-4.057 3.957" fill="#fff" fill-rule="evenodd" data-name="Path 33772"/><path d="M81.057 6.04a4.964 4.964 0 0 0-4.96 4.966 4.983 4.983 0 0 0 5.022 5.014 4.976 4.976 0 0 0 4.959-4.975 4.957 4.957 0 0 0-5.021-5.005m-.11 7.967c-1.624-.062-2.89-1.438-2.836-3.094.046-1.632 1.414-2.907 3.07-2.868a2.96 2.96 0 0 1 2.892 3.047c-.031 1.687-1.415 2.977-3.125 2.915" fill="#fff" fill-rule="evenodd" data-name="Path 33773"/><path d="M77.085 1.5c.008.793-.661 1.477-1.462 1.5-.839.024-1.562-.684-1.539-1.523.016-.785.723-1.47 1.508-1.461.785 0 1.485.7 1.493 1.484" fill="#fff" fill-rule="evenodd" data-name="Path 33774"/><path d="M12.99 13.603c-.047.84-.794 1.476-1.649 1.399a1.492 1.492 0 0 1-1.336-1.594c.062-.8.785-1.422 1.585-1.368.793.055 1.446.778 1.4 1.563" fill="#fff" fill-rule="evenodd" data-name="Path 33775"/><path d="M73.058 82.657c-.023.8-.707 1.47-1.5 1.461-.785-.015-1.477-.707-1.477-1.5-.007-.831.731-1.539 1.563-1.5.8.039 1.438.73 1.414 1.54" fill="#fff" fill-rule="evenodd" data-name="Path 33776"/><path d="M14.987 84.64c-.008.784-.7 1.476-1.492 1.476-.801 0-1.47-.66-1.485-1.469a1.483 1.483 0 0 1 1.531-1.516c.809.024 1.461.7 1.446 1.508" fill="#fff" fill-rule="evenodd" data-name="Path 33777"/><path d="M2.962 3.529c-.008.816-.7 1.492-1.5 1.485C.654 5.006-.007 4.322.001 3.498c.008-.816.684-1.493 1.492-1.485.8.008 1.477.708 1.47 1.516" fill="#fff" fill-rule="evenodd" data-name="Path 33778"/><path d="M3.95 48.666c-.055.832-.723 1.423-1.57 1.376-.832-.047-1.415-.715-1.369-1.57.047-.832.708-1.415 1.563-1.368.84.046 1.422.707 1.375 1.562" fill="#fff" fill-rule="evenodd" data-name="Path 33779"/><path d="M81.064 22.55a1.447 1.447 0 0 1-1.492 1.46c-.84-.007-1.461-.637-1.453-1.484 0-.84.637-1.461 1.476-1.454.848 0 1.477.638 1.47 1.477" fill="#fff" fill-rule="evenodd" data-name="Path 33780"/><path d="M84.065 64.632c-.023.84-.669 1.453-1.508 1.43-.847-.016-1.454-.66-1.438-1.508.023-.84.676-1.461 1.516-1.438.84.023 1.445.669 1.43 1.516" fill="#fff" fill-rule="evenodd" data-name="Path 33781"/><path d="M40 51.1c-.015.9-.746.97-1.477.97-2.168-.015-4.337-.007-6.498-.007H25.52c-.707.008-1.453-.023-1.477-.964-.023-.917.692-1.026 1.423-1.026 4.368 0 8.737 0 13.105-.008.738 0 1.454.132 1.43 1.034" fill="#fff" fill-rule="evenodd" data-name="Path 33782"/><path d="M40 55.094c-.015.887-.715.995-1.461.995-2.208-.015-4.407-.007-6.607-.007-2.169 0-4.337-.008-6.506 0-.707.007-1.36-.117-1.376-.964-.023-.91.66-1.057 1.407-1.057 4.368.007 8.737.007 13.105 0 .746 0 1.446.14 1.438 1.033" fill="#fff" fill-rule="evenodd" data-name="Path 33783"/><path d="M40 59.105c-.008.824-.653.995-1.368.995-4.407-.008-8.807-.008-13.206 0-.707 0-1.36-.14-1.384-.987-.015-.925.677-1.018 1.423-1.018 2.2.015 4.4.008 6.599.008 2.169 0 4.337.007 6.498-.008.754-.008 1.446.109 1.438 1.01" fill="#fff" fill-rule="evenodd" data-name="Path 33784"/><path d="M40 63.194c-.054.715-.622.886-1.259.886-2.239-.008-4.47 0-6.7 0h-6.6c-.691 0-1.375-.086-1.399-.948-.023-.933.677-1.034 1.415-1.034h13.198c.762-.008 1.407.186 1.345 1.096" fill="#fff" fill-rule="evenodd" data-name="Path 33785"/><path d="M42.076 73.128c-2.216.015-4.011 1.818-3.988 4.01.023 2.192 1.834 3.972 4.042 3.965a4.01 4.01 0 0 0 3.972-4.027c-.016-2.215-1.796-3.956-4.026-3.948m-.047 5.954a1.966 1.966 0 0 1-1.92-2.045c.039-1.096.956-1.935 2.068-1.904 1.096.039 1.974.964 1.927 2.044a1.996 1.996 0 0 1-2.075 1.905" fill="#fff" fill-rule="evenodd" data-name="Path 33786"/><path d="M64.796 35.001c-5.566.016-10.082 4.524-10.097 10.09-.024 5.573 4.461 10.128 10.011 10.167 5.605.046 10.175-4.478 10.198-10.082.024-5.612-4.523-10.19-10.112-10.175m-.031 18.243c-4.493-.015-8.123-3.7-8.076-8.177.046-4.454 3.676-8.068 8.107-8.076 4.47-.007 8.122 3.67 8.115 8.154a8.09 8.09 0 0 1-8.146 8.1" fill="#fff" fill-rule="evenodd" data-name="Path 33787"/><path d="M26.817 31.612c-1.857-1.119-3.73-2.2-5.627-3.24-.917-.514-1.601-.079-1.633.97-.03 1.05-.007 2.1-.007 3.149 0 1.08-.024 2.168.007 3.249.024 1.073.7 1.516 1.61 1.01 1.888-1.049 3.77-2.13 5.627-3.241.917-.552.933-1.352.023-1.897m-5.223 2.604V30.89c.987.575 1.865 1.088 2.86 1.663-.987.567-1.85 1.073-2.86 1.663" fill="#fff" fill-rule="evenodd" data-name="Path 33788"/><path d="M46.07 6.988c.032.645-.38 1.018-1.002 1.026-1.99.031-3.987.062-5.97-.031-.365-.016-.909-.591-.994-.987-.133-.614.38-.949 1.018-.956.971-.008 1.95 0 2.93 0h2.938c.646-.008 1.058.31 1.08.948" fill="#fff" fill-rule="evenodd" data-name="Path 33789"/><path d="M64.804 39.549a5.56 5.56 0 0 0-5.597 5.604c.008 3.047 2.487 5.557 5.542 5.596 3.063.04 5.636-2.503 5.651-5.588a5.567 5.567 0 0 0-5.596-5.612m-.032 9.195c-1.99-.023-3.575-1.656-3.552-3.669a3.562 3.562 0 0 1 3.661-3.537 3.567 3.567 0 0 1 3.506 3.6c0 1.997-1.632 3.621-3.615 3.606" fill="#fff" fill-rule="evenodd" data-name="Path 33790"/></g><defs><clipPath id="a"><path d="M0 0h86.078v86.135H0V0z" data-name="Rectangle 7055"/></clipPath></defs></svg>