<svg xmlns="http://www.w3.org/2000/svg" width="77.74" height="77.766"><g data-name="Group 21912" clip-path="url(&quot;#a&quot;)"><path d="M77.713 40.477c-.56 15.967-11.46 30.431-26.66 35.262-12.108 3.86-23.509 2.18-34.114-4.801-.412-.266-.766-.325-1.267-.207-3.064.855-6.127 1.68-9.22 2.475-.825.236-1.591-.03-1.827-.737a2.455 2.455 0 0 1-.059-1.384c.796-3.064 1.62-6.098 2.416-9.162.088-.324 0-.766-.177-1.031C3.093 55.412.913 49.373.177 42.804L0 41.302v-4.714c.03-.235.118-.471.118-.736.324-4.42 1.355-8.69 3.21-12.697C9.133 10.753 18.796 3.21 32.229.589 33.672.324 35.145.206 36.588 0h4.566c1.503.206 3.035.354 4.567.619 5.42.942 10.399 3.034 14.965 6.098.854.589 1.06 1.502.56 2.239-.501.736-1.385.854-2.269.265a36.242 36.242 0 0 0-13.05-5.48C26.867-.118 8.1 12.02 3.977 31.08 1.738 41.39 3.653 50.964 9.692 59.655c.56.795.707 1.532.442 2.474-.648 2.24-1.237 4.478-1.827 6.717-.058.206-.088.442-.147.766 1.385-.354 2.681-.678 3.948-1.031 1.178-.324 2.356-.59 3.505-.972.943-.295 1.68-.148 2.475.442a33.56 33.56 0 0 0 10.782 5.214c20.297 5.685 40.948-6.687 45.072-27.309 1.945-9.603.118-18.53-5.155-26.778-.088-.147-.206-.295-.295-.442-.56-.884-.441-1.768.295-2.268.736-.501 1.68-.295 2.21.589.913 1.473 1.826 2.916 2.621 4.448 3.005 5.95 4.33 12.314 4.095 18.972" fill="#fff" fill-rule="evenodd" data-name="Path 33791"/><path d="M38.68 13.934c-6.54-.03-12.402 4.124-14.494 10.281-.854 2.534.353 5.156 2.799 6.098 2.445.914 5.096-.235 6.127-2.71.118-.235.206-.471.295-.707 1.09-2.474 3.859-3.918 6.422-3.24 2.71.707 4.654 3.329 4.39 6.039-.237 2.268-1.592 3.682-3.536 4.772-4.36 2.475-6.687 6.275-6.834 11.312-.089 2.681 1.826 4.802 4.389 4.98 2.68.146 4.92-1.65 5.096-4.39.118-1.915 1.031-3.035 2.622-3.948 5.126-2.916 7.63-7.424 7.836-12.284-.03-9.25-6.893-16.144-15.112-16.203M44.454 39.8c-2.504 1.385-4.007 3.27-4.124 6.216-.03 1.09-.825 1.738-1.827 1.709-1.002-.06-1.65-.796-1.62-1.915.118-3.86 1.885-6.776 5.244-8.632 2.268-1.296 4.006-2.975 4.772-5.508 1.355-4.449-1.149-9.221-5.656-10.753-4.272-1.473-9.044.766-10.753 5.067-.442 1.149-1.06 1.68-1.915 1.62-1.207-.118-1.915-1.237-1.473-2.445 1.267-3.535 3.653-6.039 7.159-7.394 7.807-3.005 16.497 3.005 16.497 12.196-.177 3.889-2.18 7.541-6.304 9.84" fill="#fff" fill-rule="evenodd" data-name="Path 33792"/><path d="M38.591 54.264c-2.621 0-4.742 2.15-4.742 4.772 0 2.651 2.091 4.772 4.742 4.772 2.652 0 4.802-2.15 4.802-4.772 0-2.622-2.18-4.772-4.802-4.772m-.029 6.51c-.972-.03-1.709-.766-1.68-1.767 0-.943.796-1.709 1.739-1.709.943.03 1.738.825 1.709 1.768 0 .972-.796 1.708-1.768 1.708" fill="#fff" fill-rule="evenodd" data-name="Path 33793"/><path d="M66.784 12.49a1.529 1.529 0 0 1-1.532 1.474c-.854 0-1.532-.678-1.502-1.532.029-.825.736-1.503 1.56-1.473.796.03 1.474.736 1.474 1.532" fill="#fff" fill-rule="evenodd" data-name="Path 33794"/></g><defs><clipPath id="a"><path d="M0 0h77.74v77.766H0V0z" data-name="Rectangle 7056"/></clipPath></defs></svg>