<svg xmlns="http://www.w3.org/2000/svg" width="89.4" height="89.391"><g data-name="Group 21885" clip-path="url(&quot;#a&quot;)"><path d="M16.44 33.847c.006 9.104.006 18.206 0 27.31 0 1.96-.988 2.963-2.936 2.97-3.375.01-6.748-.049-10.122.026-1.611.035-2.757-.485-3.382-2.001V32.818c.644-1.502 1.79-2.016 3.399-1.976 3.343.077 6.688.019 10.033.023 2.022.005 3.009.978 3.009 2.982" fill="#fff" fill-rule="evenodd" data-name="Path 33723"/><path d="M76.615 69.612c-.049.135-.121.405-.238.655-4.019 8.517-10.725 13.037-20.138 13.511-1.045.051-2.097-.014-3.142.03-.254.01-.637.185-.728.388-1.239 2.785-3.324 4.492-6.314 5.09-.05.009-.09.07-.133.105h-2.27c-.693-.208-1.404-.364-2.072-.637-3.415-1.393-5.481-4.899-5.062-8.526.425-3.66 3.25-6.597 6.93-7.201 3.537-.581 7.15 1.318 8.672 4.644.314.695.662.898 1.409.905 3.044.023 6.046-.11 8.899-1.337 3.956-1.7 6.893-4.469 8.808-8.323.091-.18.184-.354.189-.366l5.19 1.062" fill="#fff" fill-rule="evenodd" data-name="Path 33724"/><path d="M89.398 33.886c.003 9.077.003 18.151 0 27.228 0 1.999-.998 3.009-2.995 3.013-3.49.01-6.982.01-10.471 0-2-.004-2.974-1-2.974-3.025-.005-4.537-.003-9.077-.003-13.614 0-4.537-.002-9.076.003-13.613.002-2.02.98-3.005 2.983-3.01 3.49-.004 6.982-.004 10.472.003 1.99.002 2.985 1.012 2.985 3.018" fill="#fff" fill-rule="evenodd" data-name="Path 33725"/><path d="m77.133 25.444-4.973.695C67.29 12.516 57.818 4.601 42.882 5.416c-13.191.718-21.458 8.512-25.597 20.742l-4.966-.714C14.288 15.003 24.969 1.032 42.908.053c17.896-.98 31.211 11.86 34.225 25.391" fill="#fff" fill-rule="evenodd" data-name="Path 33726"/><path d="M41.711 58.627c-.063 1.406-1.16 2.491-2.631 2.498-4.656.021-9.31.021-13.966.002-1.635-.007-2.69-1.164-2.648-2.813.068-2.6 1.083-4.782 2.911-6.61 3.479-3.474 6.94-6.968 10.444-10.414.574-.564.732-1.091.562-1.847-.5-2.219-2.34-3.637-4.637-3.509-2.128.117-3.812 1.783-4.031 3.99-.198 1.977-1.253 3.104-2.804 2.99-1.64-.117-2.536-1.372-2.417-3.383.28-4.698 4.302-8.642 9.002-8.827 5.06-.2 9.392 3.255 10.068 8.03.05.345.084.692.13 1.038.26 1.945-.296 3.475-1.795 4.889-3.577 3.37-6.99 6.914-10.465 10.392-.217.217-.42.448-.79.845 3.419 0 6.59 0 9.76.002.319 0 .643-.016.958.028 1.395.196 2.41 1.372 2.349 2.699" fill="#fff" fill-rule="evenodd" data-name="Path 33727"/><path d="M68.343 50.075c-.02-1.406-.898-2.267-2.799-2.68v-1.013c0-4.247-.01-8.498.007-12.745.005-1.25-.413-2.223-1.598-2.748-1.087-.483-2.115-.21-3.146.82-3.854 3.845-7.696 7.696-11.552 11.538-1.621 1.617-2.564 3.544-2.916 5.813-.392 2.536 1.194 3.76 3.17 3.7 3.546-.11 7.094-.033 10.798-.033v1.045c0 1.484-.03 2.968.019 4.451.016.537.128 1.113.364 1.589.5 1.015 1.707 1.511 2.813 1.271 1.155-.25 2.002-1.245 2.025-2.52.037-1.917.01-3.834.01-5.73 1.935-.42 2.829-1.319 2.805-2.758m-8.108-2.612h-7.376c2.433-2.436 4.938-4.943 7.376-7.381v7.38Z" fill="#fff" fill-rule="evenodd" data-name="Path 33728"/></g><defs><clipPath id="a"><path d="M0 0h89.4v89.39H0V0z" data-name="Rectangle 7029"/></clipPath></defs></svg>