<svg xmlns="http://www.w3.org/2000/svg" width="82.732" height="82.746"><g data-name="Group 21887" clip-path="url(&quot;#a&quot;)"><path d="M80.879 1.59c-2.977-2.695-7.554-1.873-9.244 1.775-1.455 3.145-2.714 6.381-4.06 9.577-.447 1.061-.893 2.122-1.29 3.06-1.173-.606-2.268-1.307-3.46-1.744-.911-.334-1.944-.464-2.923-.466-16.946-.026-33.889-.024-50.834-.016-4.678.002-8.011 2.727-8.943 7.263-.02.1-.082.196-.125.293v53.98c.121.433.219.872.368 1.295 1.15 3.248 3.36 5.303 6.775 5.995.156.03.303.095.455.144h53.828c1.404-.365 2.789-.753 3.973-1.662 2.47-1.893 3.593-4.394 3.589-7.483-.017-12.067-.015-24.133.014-36.2 0-.668.17-1.39.455-1.996 4.168-8.857 8.372-17.698 12.56-26.545 1.27-2.69.821-5.497-1.138-7.27M65.506 73.685c-.002 3.49-2.147 5.62-5.661 5.62-16.919.007-33.836.009-50.753 0-3.487-.001-5.651-2.167-5.651-5.652-.008-16.942-.008-33.883 0-50.824.002-2.79 1.435-4.755 3.939-5.408.536-.14 1.117-.166 1.678-.166 16.971-.008 33.94 0 50.913-.015 1.79-.002 3.272.575 4.37 2 .173.227.285.67.184.915-1.85 4.502-3.737 8.987-5.617 13.476-.028.065-.085.12-.271.373 0-2.61 0-5.006-.002-7.4 0-1.935-.559-2.488-2.51-2.488-14.44-.002-28.88-.002-43.319 0-1.898 0-2.46.559-2.46 2.445v12.525c0 1.676.61 2.281 2.294 2.283h43.035c-.471 1.117-.874 2.164-1.366 3.168-.089.18-.542.253-.826.255-4.365.014-8.73.01-13.093.01-1.893.002-2.443.554-2.445 2.453 0 6.437-.01 12.873.016 19.311.002.61-.156 1.02-.66 1.34-.613.387-1.19.832-1.81 1.209-1.2.73-1.35 1.985-.313 2.953 2.048 1.913 4.518 2.88 7.27 3.155 3.684.369 7.208-.224 10.45-2.04 2.733-1.532 4.1-4.12 4.961-6.997.598-1.988.73-4.018.12-6.052a1.031 1.031 0 0 1 .06-.678c2.401-5.082 4.816-10.157 7.23-15.233.02-.042.065-.073.177-.19.026.29.06.508.06.726.004 9.643.008 19.286 0 28.926m-21.86-9.126c.575-1.982 1.298-3.87 2.98-5.237 2.714-2.206 5.68-1.435 7.57.826.992 1.188.897 2.668.601 4.093-.478 2.289-1.29 4.503-3.372 5.744-1.374.818-3.01 1.287-4.59 1.64-2.148.48-4.334.38-6.45-.359-.343-.121-.673-.279-1.084-.449.733-.684 1.4-1.261 2.016-1.89 1.196-1.225 1.858-2.747 2.33-4.368m-2.213-4.188V48.343h11.319c-.848 2.026-1.658 3.981-2.492 5.926-.067.152-.308.316-.476.326-3.817.229-6.367 2.308-8.14 5.536-.035.063-.097.111-.21.24m12.13-5.017c1.53-3.653 3.064-7.32 4.622-11.049l2.605 1.275-5.236 11.055-1.992-1.28m1.553-17.474H13.82V27.663h41.297v10.218ZM78.999 7.174c-1.025 2.22-2.095 4.42-3.144 6.633l-13.197 27.84c-.115.24-.242.474-.412.806l-2.717-1.342c.7-1.672 1.37-3.28 2.045-4.888 4.295-10.266 8.59-20.534 12.889-30.798.595-1.425 1.457-2.058 2.63-1.957C78.842 3.62 79.799 5.44 79 7.174" fill="#fff" fill-rule="evenodd" data-name="Path 33729"/><path d="M28.685 44.805c-5.332-.004-10.663-.004-15.994 0-1.729 0-2.344.611-2.344 2.317-.002 7.645-.002 15.29 0 22.935 0 1.745.587 2.342 2.311 2.342 5.358.002 10.716.002 16.073 0 1.72 0 2.304-.595 2.304-2.35.002-3.822.002-7.645.002-11.466V47.195c-.002-1.783-.595-2.39-2.352-2.39m-1.14 24.123h-13.69v-20.6h13.69v20.6Z" fill="#fff" fill-rule="evenodd" data-name="Path 33730"/></g><defs><clipPath id="a"><path d="M0 0h82.732v82.746H0V0z" data-name="Rectangle 7030"/></clipPath></defs></svg>