<svg xmlns="http://www.w3.org/2000/svg" width="80.571" height="80.592"><g data-name="Group 21889" clip-path="url(&quot;#a&quot;)"><path d="M80.417 7.21c-.362-1.92-1.528-3.334-2.88-4.665-3.442-3.387-7.946-3.404-11.371.015-3.101 3.093-6.205 6.183-9.283 9.3-.477.485-.952.689-1.64.689-16.051-.019-32.104-.015-48.155-.015a19.3 19.3 0 0 0-1.258.03 6.255 6.255 0 0 0-5.523 4.348c-.11.345-.206.694-.307 1.04v57.29c.217.607.378 1.242.662 1.816.867 1.762 2.292 2.862 4.184 3.364.17.046.337.114.505.17H62.64c.521-.164 1.068-.273 1.562-.502 2.698-1.251 3.877-3.417 3.875-6.356-.017-16.131-.004-32.26-.02-48.39-.003-.686.199-1.161.687-1.643 3.153-3.114 6.276-6.26 9.41-9.392 1.98-1.977 2.782-4.331 2.263-7.098M65.544 73.73c0 2.884-1.472 4.344-4.363 4.344-18.097.002-36.192.002-54.287 0-2.895 0-4.375-1.466-4.375-4.336 0-18.172.004-36.347-.009-54.522 0-1.434.39-2.697 1.64-3.446.684-.408 1.563-.687 2.353-.69 15.448-.04 30.893-.029 46.341-.027.198 0 .395.034.782.067-2.65 2.641-5.172 5.124-7.645 7.658-.336.347-.582.942-.59 1.428-.053 3.093-.03 6.19-.026 9.283.002 1.324.419 1.734 1.754 1.736 3.042.002 6.085-.012 9.125.01.713.005 1.24-.239 1.734-.74 2.246-2.279 4.519-4.532 6.783-6.793.198-.2.406-.389.736-.702.02.404.047.673.047.942.002 15.263.002 30.525 0 45.788m-17.59-46.307 5.243 5.25h-5.244v-5.25Zm28.466-14.96c-4.718 4.739-9.453 9.461-14.182 14.192-1.65 1.65-3.299 3.301-4.951 4.95-.181.18-.372.35-.503.473l-8.271-8.27c.128-.136.302-.328.485-.51 6.304-6.306 12.61-12.612 18.915-18.915 2.496-2.496 5.372-2.496 7.868-.009.223.223.448.444.666.669 2.172 2.22 2.175 5.21-.027 7.42" fill="#fff" fill-rule="evenodd" data-name="Path 33731"/><path d="M56.122 62.472a4333.583 4333.583 0 0 0-11.367-24.335c-1.12-2.38-3.11-3.606-5.72-3.593-2.58.015-4.486 1.274-5.65 3.593-.41.818-.782 1.657-1.205 2.561-.164-.113-.25-.168-.33-.231-3.476-2.723-7.885-1.768-9.857 2.16a5710.47 5710.47 0 0 0-9.838 19.665c-1.413 2.836.345 5.696 3.507 5.698 12.298.012 24.596.014 36.892 0 3.05-.005 4.844-2.765 3.568-5.518m-39.905 2.999c-.21 0-.42.006-.63 0-1.193-.04-1.742-.919-1.205-1.998 3.307-6.63 6.623-13.256 9.943-19.88.696-1.391 1.854-2.136 3.4-2.14 1.511-.004 2.682.7 3.366 2.06 3.618 7.206 7.216 14.422 10.817 21.636.034.065.043.143.09.322h-25.78Zm36.246-.002c-1.154.01-2.308.002-3.463.002-1.154 0-2.308-.015-3.46.008-.438.01-.698-.099-.91-.525-3.525-7.08-7.07-14.149-10.59-21.232a1.252 1.252 0 0 1-.029-.932c.5-1.181 1.058-2.338 1.61-3.496.686-1.432 1.836-2.22 3.422-2.231 1.619-.01 2.798.774 3.488 2.248 3.76 8.042 7.517 16.082 11.265 24.129.551 1.181-.012 2.018-1.333 2.029" fill="#fff" fill-rule="evenodd" data-name="Path 33732"/><path d="M25.214 25.148c-2.794-.002-5.06 2.26-5.05 5.04.01 2.733 2.264 5 5.004 5.031 2.769.034 5.06-2.24 5.067-5.025a4.996 4.996 0 0 0-5.02-5.046m-.02 7.55c-1.35-.013-2.508-1.175-2.512-2.523-.003-1.39 1.173-2.53 2.582-2.506 1.387.023 2.466 1.143 2.451 2.54-.015 1.375-1.156 2.5-2.52 2.489" fill="#fff" fill-rule="evenodd" data-name="Path 33733"/><path d="M74.49 7.415c-.29.47-.435.847-.696 1.108-5.77 5.79-11.55 11.57-17.336 17.344-.656.656-1.404.683-1.938.128-.54-.566-.486-1.255.191-1.934C60.47 18.297 66.235 12.538 71.99 6.77c.452-.45.978-.73 1.541-.42.38.208.62.672.959 1.064" fill="#fff" fill-rule="evenodd" data-name="Path 33734"/></g><defs><clipPath id="a"><path d="M0 0h80.571v80.592H0V0z" data-name="Rectangle 7031"/></clipPath></defs></svg>