<svg xmlns="http://www.w3.org/2000/svg" width="88.41" height="88.431"><g data-name="Group 21894" clip-path="url(&quot;#a&quot;)"><path d="M80.333 48.282c-.437-.395-.534-.777-.534-1.304.014-8.733.007-17.467.007-26.207v-.853c6.77-1.457 8.942-6.964 8.512-10.898C87.79 4.095 83.83.28 79.029.017c-2.469-.132-4.71.527-6.673 2.025-2.587 1.977-3.836 4.669-3.995 7.936H0v57.095h42.758c.048.292.097.52.118.756 1.179 13.034 13.491 22.586 26.366 20.249 9.427-1.707 15.74-7.312 18.257-16.53 2.483-9.088-.18-16.933-7.166-23.266M78.377 2.854c3.933-.007 7.145 3.204 7.131 7.145-.007 3.926-3.232 7.13-7.165 7.11-3.892-.014-7.083-3.212-7.09-7.104-.013-3.94 3.191-7.151 7.124-7.151M42.785 64.125H2.858v-51.29h.909c21.365 0 42.73 0 64.094-.013.673 0 1.048.11 1.284.84.263.804.763 1.532 1.2 2.364-2.761 2.754-5.557 5.55-8.373 8.318-.152.145-.506.124-.77.131-.902.014-1.81.021-2.712-.014-.305-.006-.659-.069-.902-.242-.381-.27-.666-.673-1.02-.985-.901-.77-1.484-1.485-1.089-2.9.444-1.595-.659-3.336-2.178-4.127-1.602-.833-3.163-.7-4.606.367-1.4 1.041-2.018 2.782-1.519 4.433.194.631.077 1.006-.388 1.457a397.396 397.396 0 0 0-5.931 5.917c-.36.36-.645.527-1.214.353-1.928-.603-3.92.23-4.904 1.929a4.257 4.257 0 0 0 .7 5.168 4.263 4.263 0 0 0 5.175.659c1.686-1 2.483-2.983 1.894-4.925-.139-.472-.083-.743.257-1.083a648.238 648.238 0 0 0 6.18-6.173c.32-.326.59-.389 1.075-.305a7.525 7.525 0 0 0 2.525-.007c.493-.084.77-.021 1.075.319.278.305.576.596.881.88.867.805 1.61 1.464 1.145 2.977-.479 1.581.659 3.322 2.185 4.106 1.602.832 3.163.694 4.599-.375 1.401-1.04 2.019-2.788 1.512-4.432-.201-.652-.048-1.006.402-1.45 2.685-2.65 5.342-5.327 7.908-7.9 1.617.672 3.087 1.283 4.655 1.942v25.755c-4.717-2.587-9.712-3.6-15.025-2.719-5.279.867-9.684 3.371-13.436 7.422v-6.256H39.94v17.03h3.156l-.312 2.83M61.258 28.54c-.014.777-.673 1.415-1.436 1.401A1.433 1.433 0 0 1 58.42 28.5a1.43 1.43 0 0 1 1.435-1.395c.777.014 1.416.666 1.402 1.436m-8.56-8.608c.02.77-.618 1.436-1.387 1.45-.77.02-1.43-.618-1.45-1.388a1.441 1.441 0 0 1 1.387-1.45 1.432 1.432 0 0 1 1.45 1.388M39.865 32.785a1.442 1.442 0 0 1-1.408 1.436 1.432 1.432 0 0 1-1.43-1.408 1.421 1.421 0 0 1 1.402-1.429c.77-.014 1.422.631 1.436 1.401m37.09 32.839c-.007 6.263-5.133 11.39-11.404 11.397-6.305 0-11.438-5.154-11.417-11.474.02-6.25 5.168-11.362 11.445-11.348 6.264.014 11.383 5.154 11.376 11.425m-34.19-6.937v-11.55h2.809v2.338c0 .652-.09 1.318.02 1.956.41 2.463-.658 4.565-1.63 6.673-.124.27-.68.34-1.2.583m4.912-1.9c3.357-6.667 8.934-10.232 16.384-11.113v5.716c-4.717.665-8.435 2.94-10.842 7.082-2.407 4.155-2.532 8.497-.687 13-1.65.956-3.24 1.872-4.939 2.85-2.691-5.917-2.816-11.778.084-17.536m17.41 28.753c-6.763-.139-12.062-3.205-16.085-8.727 1.72-.998 3.33-1.921 4.932-2.85 5.972 7.886 17.418 7.824 23.237.006 1.603.93 3.205 1.853 4.925 2.851-4.28 5.793-9.87 8.872-17.008 8.72m18.347-11.251c-1.65-.958-3.24-1.873-4.87-2.817 1.839-4.467 1.728-8.837-.707-13.013-2.414-4.141-6.125-6.416-10.849-7.068v-5.695c6.694.693 11.883 3.76 15.476 9.392 3.92 6.139 3.822 13.72.95 19.2" fill="#fff" fill-rule="evenodd" data-name="Path 33735"/><path d="M28.503 61.288h8.456v-22.71h-8.456v22.71Zm5.598-2.85h-2.74v-17.01h2.74v17.01Z" fill="#fff" fill-rule="evenodd" data-name="Path 33736"/><path d="M5.681 61.281h8.456v-14.15H5.68v14.15ZM11.3 58.41H8.546v-8.448H11.3v8.448Z" fill="#fff" fill-rule="evenodd" data-name="Path 33737"/><path d="M17.092 61.274h8.456v-11.32h-8.456v11.32Zm5.605-2.85h-2.754v-5.585h2.754v5.584Z" fill="#fff" fill-rule="evenodd" data-name="Path 33738"/><path d="M11.383 21.437h19.853v2.747H11.383v-2.747z" fill="#fff" fill-rule="evenodd" data-name="Rectangle 7032"/><path d="M11.383 27.146H31.27v2.74H11.383v-2.74z" fill="#fff" fill-rule="evenodd" data-name="Rectangle 7033"/><path d="M11.383 32.869H31.27v2.74H11.383v-2.74z" fill="#fff" fill-rule="evenodd" data-name="Rectangle 7034"/><path d="M11.41 15.714h19.847v2.782H11.41v-2.782z" fill="#fff" fill-rule="evenodd" data-name="Rectangle 7035"/><path d="M5.681 27.16h2.754v2.74H5.681v-2.74z" fill="#fff" fill-rule="evenodd" data-name="Rectangle 7036"/><path d="M5.702 21.45h2.712v2.776H5.702V21.45z" fill="#fff" fill-rule="evenodd" data-name="Rectangle 7037"/><path d="M5.653 15.756h2.775v2.705H5.653v-2.705z" fill="#fff" fill-rule="evenodd" data-name="Rectangle 7038"/><path d="M5.695 32.855h2.754v2.768H5.695v-2.768z" fill="#fff" fill-rule="evenodd" data-name="Rectangle 7039"/><path d="M65.53 57.057c-4.702.007-8.545 3.864-8.538 8.567.007 4.703 3.863 8.546 8.573 8.539 4.703-.007 8.54-3.864 8.532-8.574-.007-4.703-3.856-8.546-8.566-8.532m.027 14.255c-3.149.007-5.722-2.567-5.715-5.716.007-3.142 2.58-5.702 5.736-5.688 3.108.014 5.654 2.56 5.667 5.667.014 3.15-2.545 5.73-5.688 5.737" fill="#fff" fill-rule="evenodd" data-name="Path 33739"/></g><defs><clipPath id="a"><path d="M0 0h88.41v88.43H0V0z" data-name="Rectangle 7040"/></clipPath></defs></svg>