<svg xmlns="http://www.w3.org/2000/svg" width="80.348" height="83.085" viewBox="0.001 0 80.348 83.085"><g data-name="Group 21896" clip-path="url(&quot;#a&quot;)"><path d="M78.625 83.085H1.715c-1.526 0-2.073-.82-1.48-2.21 2.575-6.016 5.15-12.033 7.725-18.071.296-.707.706-1.163 1.55-1.163 5.195.023 10.368 0 15.564.023.09 0 .16.023.319.046v2.62H10.968c-.41 0-.752-.022-.98.502-2.142 5.059-4.307 10.095-6.472 15.154-.045.091-.045.205-.091.364h73.514c-.091-.227-.16-.455-.25-.683-2.097-4.9-4.194-9.776-6.267-14.676-.228-.547-.502-.683-1.049-.683-4.785.022-9.548.022-14.379.022v-2.643a8.83 8.83 0 0 1 .775-.046c4.922 0 9.844.023 14.744 0 .98-.022 1.55.342 1.914 1.254 2.53 5.97 5.105 11.94 7.657 17.911.638 1.459.114 2.279-1.459 2.279" fill="#fff" fill-rule="evenodd" data-name="Path 33740"/><path d="M71.994 79.074H8.347c-1.413 0-1.96-.82-1.481-2.142 1.276-3.372 2.552-6.745 3.806-10.118.273-.729.706-1.14 1.526-1.14H22.34c.091 0 .205.024.365.047v2.62h-.843c-2.712 0-5.424.023-8.136 0-.615-.023-.866.182-1.048.752a368.267 368.267 0 0 1-2.416 6.426c-.09.251-.16.502-.273.82h60.41c-.91-2.392-1.8-4.694-2.62-7.018-.25-.752-.592-1.003-1.413-1.003-2.62.069-5.24.023-7.861.023h-.866v-2.62c.25-.023.478-.046.729-.046 3.167 0 6.358.023 9.548-.023.934 0 1.481.365 1.8 1.253 1.23 3.35 2.507 6.677 3.76 10.027.502 1.322-.068 2.142-1.48 2.142" fill="#fff" fill-rule="evenodd" data-name="Path 33741"/><path d="M54.903 28.508c0-.912-.478-1.39-1.39-1.459-.25-.022-.501-.045-.752 0-1.071.228-1.025-.706-1.39-1.276-.365-.592.068-.843.365-1.185.41-.433.752-.911 1.139-1.413-.25-.455-.387-.843-.638-1.116C51.189 20.942 50.095 19.87 49 18.8c-.73-.706-1.39-.684-2.142 0-.25.25-.501.524-.775.752-.137.114-.342.228-.501.205-1.071-.114-1.618-.729-1.618-1.8 0-.182 0-.387-.023-.593-.091-.797-.57-1.253-1.39-1.276a165.906 165.906 0 0 0-4.763 0c-.82.023-1.299.479-1.367 1.3-.046.41 0 .82-.046 1.253 0 .182-.045.41-.16.524-.683.66-1.754.615-2.437-.069a1.821 1.821 0 0 0-.297-.296c-.752-.684-1.39-.706-2.119 0a210.578 210.578 0 0 0-3.19 3.19c-.752.752-.73 1.413.023 2.188.227.25.478.456.706.706.114.137.228.342.228.502-.091 1.025-.775 1.663-1.8 1.663h-.593c-.797.091-1.276.57-1.299 1.368a172.327 172.327 0 0 0 0 4.853c.023.775.502 1.231 1.276 1.3.41.045.82.022 1.254.045.182 0 .41.046.524.16.66.638.638 1.754-.023 2.438a2.27 2.27 0 0 0-.25.228c-.798.82-.798 1.458.022 2.301.98 1.003 1.983 1.983 2.963 2.963.911.888 1.526.888 2.438 0 .205-.205.41-.456.638-.638.137-.114.365-.205.524-.183 1.185.205 1.572.661 1.595 1.914 0 .183 0 .342.023.502.091.775.547 1.23 1.322 1.253 1.618.023 3.236.023 4.854 0 .774-.023 1.253-.456 1.321-1.23.046-.433.023-.844.046-1.254.023-.205.068-.478.205-.592.843-.707 1.686-.638 2.438.114l.41.41c.616.501 1.254.524 1.823-.023a83.838 83.838 0 0 0 3.487-3.486c.57-.593.524-1.231-.023-1.87-.25-.295-.57-.546-.82-.842-.114-.137-.25-.32-.25-.479 0-.934.797-1.686 1.731-1.709.182 0 .342.023.524 0 .935-.068 1.413-.524 1.436-1.481 0-1.55 0-3.076-.023-4.603m-2.712 3.304c-2.187.501-3.646 2.142-3.737 4.466-.023.775.479 1.573.775 2.53-.296.273-.775.73-1.299 1.23-.296-.205-.615-.478-.957-.683-1.527-.798-5.036.638-5.56 2.279-.114.364-.137.752-.205 1.185h-2.006c-.16-.57-.25-1.163-.501-1.664-.547-1.048-3.578-2.347-4.694-2.005-.57.182-1.094.547-1.664.843a60.79 60.79 0 0 0-1.367-1.459c.114-.136.296-.341.455-.57 1.277-1.754-.41-5.696-2.552-5.992-.205-.046-.433-.046-.706-.092v-2.05c2.187-.525 3.623-2.143 3.714-4.444.023-.798-.456-1.595-.775-2.53.32-.273.82-.729 1.368-1.207.25.182.547.455.911.638 1.527.797 5.014-.616 5.538-2.28.114-.364.136-.751.205-1.184h2.05c.48 2.142 2.302 3.737 4.513 3.714.775 0 1.55-.478 2.415-.774.297.319.752.82 1.254 1.344-.183.273-.456.57-.661.934-.798 1.527.638 5.014 2.279 5.538.364.114.752.137 1.207.205v2.028Z" fill="#fff" fill-rule="evenodd" data-name="Path 33742"/><path d="M77.532 9.389c-1.892-.023-3.783 0-5.697 0h-.82V5.743c-.024-1.254-.457-1.71-1.71-1.732h-7.292c-1.299.022-1.732.455-1.732 1.8v7.11c0 1.413.433 1.823 1.869 1.823h3.44v2.689c-.843 0-1.64-.023-2.46 0-.98.023-1.504.501-1.504 1.481a295.71 295.71 0 0 0 0 6.358c0 1.003.5 1.527 1.48 1.527 2.143.022 4.262.022 6.381 0 1.026 0 1.504-.524 1.504-1.573.023-.775.023-1.55.023-2.438h6.45c1.047-.023 1.572-.501 1.572-1.527.022-3.464.022-6.927 0-10.368 0-1.003-.502-1.504-1.504-1.504M68.28 24.064h-3.92v-3.92h1.208c.364 2.553.364 2.553 2.712 2.667v1.253Zm.022-14.858c-.752.183-1.686.137-2.164.593-.456.456-.479 1.39-.707 2.21h-2.415V6.768h5.286v2.438Zm7.999 10.87h-7.907v-7.953H76.3v7.953Z" fill="#fff" fill-rule="evenodd" data-name="Path 33743"/><path d="M18.306 21.443H8.438c-1.321 0-1.777.433-1.777 1.732v6.313H2.969c-1.185 0-1.663.478-1.663 1.663v7.36c0 1.208.478 1.687 1.663 1.687 2.461.023 4.922 0 7.36 0 1.231 0 1.687-.479 1.687-1.732.023-1.185 0-2.393 0-3.623h6.29c1.321 0 1.754-.456 1.754-1.755v-9.89c0-1.299-.433-1.755-1.754-1.755M9.304 37.486H4.018v-5.264h2.597c.114 2.074-.25 2.575 2.69 2.69v2.574Zm8.044-5.378H9.395v-7.953h7.953v7.953Z" fill="#fff" fill-rule="evenodd" data-name="Path 33744"/><path d="M43.942 0H36.4c-1.094 0-1.572.501-1.572 1.595a416.083 416.083 0 0 0 0 7.543c0 1.094.478 1.572 1.572 1.572 2.53.023 5.036.023 7.543 0 1.094 0 1.572-.478 1.595-1.572V1.595C45.514.501 45.036 0 43.942 0m-1.117 7.999h-5.264V2.735h5.264v5.264Z" fill="#fff" fill-rule="evenodd" data-name="Path 33745"/><path d="M17.235 8.044c-2.12-.023-4.262-.023-6.381 0-.98 0-1.504.501-1.504 1.504-.023 2.12-.023 4.239 0 6.358 0 1.003.501 1.504 1.504 1.504 1.071.023 2.165 0 3.259 0 1.025 0 2.073.023 3.099 0 1.002 0 1.504-.501 1.504-1.481.023-2.12.023-4.262 0-6.38 0-.98-.502-1.505-1.481-1.505m-1.231 6.654h-3.942v-3.942h3.942v3.942Z" fill="#fff" fill-rule="evenodd" data-name="Path 33746"/><path d="M65.522 40.22c-1.709-.022-3.395-.022-5.104 0-.935 0-1.459.502-1.459 1.436-.022 1.71-.022 3.419 0 5.105 0 .957.502 1.458 1.436 1.481.843.023 1.686 0 2.507 0 .866 0 1.732.023 2.598 0 .957-.023 1.458-.524 1.48-1.458a190.63 190.63 0 0 0 0-5.105c-.022-.934-.523-1.458-1.458-1.458m-1.253 5.31h-2.575v-2.598h2.575v2.597Z" fill="#fff" fill-rule="evenodd" data-name="Path 33747"/><path d="M30.839 51h2.575v13.285h-2.575V51z" fill="#fff" fill-rule="evenodd" data-name="Rectangle 7041"/><path d="M46.905 52.321h2.62v11.941h-2.62v-11.94z" fill="#fff" fill-rule="evenodd" data-name="Rectangle 7042"/><path d="M41.572 61.687h2.575v10.62h-2.575v-10.62z" fill="#fff" fill-rule="evenodd" data-name="Rectangle 7043"/><path d="M41.572 49.632h2.575v9.275h-2.575v-9.275z" fill="#fff" fill-rule="evenodd" data-name="Rectangle 7044"/><path d="M36.194 49.632h2.575v7.93h-2.575v-7.93z" fill="#fff" fill-rule="evenodd" data-name="Rectangle 7045"/><path d="M36.194 65.743h2.62v6.586h-2.62v-6.586z" fill="#fff" fill-rule="evenodd" data-name="Rectangle 7046"/><path d="M36.217 60.365h2.552v2.598h-2.552v-2.598z" fill="#fff" fill-rule="evenodd" data-name="Rectangle 7047"/><path d="M30.816 67.065h2.62v2.575h-2.62v-2.575z" fill="#fff" fill-rule="evenodd" data-name="Rectangle 7048"/><path d="M46.927 67.065h2.575v2.598h-2.575v-2.598z" fill="#fff" fill-rule="evenodd" data-name="Rectangle 7049"/><path d="M40.182 22.788c-4.375-.023-8.021 3.578-8.044 7.953-.046 4.466 3.555 8.112 8.021 8.112 4.398.023 8.022-3.577 8.067-7.93.023-4.489-3.578-8.135-8.044-8.135m0 13.4a5.388 5.388 0 0 1-5.378-5.379c.023-2.94 2.416-5.332 5.332-5.355 2.963 0 5.401 2.393 5.401 5.333 0 2.985-2.393 5.4-5.355 5.4" fill="#fff" fill-rule="evenodd" data-name="Path 33748"/></g><defs><clipPath id="a"><path d="M0 0h80.348v83.085H0V0z" data-name="Rectangle 7050"/></clipPath></defs></svg>