<svg xmlns="http://www.w3.org/2000/svg" width="84.196" height="84.24"><g data-name="Group 21898" clip-path="url(&quot;#a&quot;)"><path d="M84.08 36.86c-.87-8.58-7.28-15.8-15.72-17.61-1.62-.35-3.29-.46-5-.69-.01-.18-.03-.44-.03-.71 0-1.95.01-3.89-.01-5.84-.01-1.74-1.22-2.92-2.96-2.96-.54-.01-1.07 0-1.65 0-.02-1.35.11-2.64-.93-3.63-1.06-1-2.4-.72-3.75-.82.14-1.99.01-3.83-2.22-4.6H2.14C1.15.43.44 1.14 0 2.14v70.9c.86 2.14 2.69 2.29 4.63 2.13.04 1.42-.18 2.77.89 3.84 1.07 1.07 2.45.69 3.78.86v1.03c.02 2.24 1.1 3.32 3.34 3.33 12.49 0 24.99-.01 37.49.01.74 0 1.29-.21 1.82-.73 3.54-3.56 7.09-7.1 10.66-10.62.5-.5.74-1.03.73-1.74-.03-3.46-.01-6.91-.01-10.36v-1.4c.46 0 .83.01 1.21 0 3.2-.1 6.21-.92 9.03-2.44.82-.45 1.05-1.13.62-1.82-.4-.66-1.01-.75-1.93-.27-4.03 2.1-8.26 2.61-12.67 1.55-2.79-.66-5.26-1.94-7.46-3.87 3.97-3.97 7.9-7.9 11.85-11.82.15-.15.55-.18.79-.12 2.44.62 4.87 1.27 7.3 1.91 2.88.76 5.76 1.53 8.7 2.31-.11.31-.19.56-.29.81-.73 1.88-1.78 3.57-3.07 5.12-.62.74-.45 1.62.34 1.98.69.32 1.2.03 1.64-.51 3.68-4.48 5.27-9.59 4.69-15.36M9.3 12.51v64.76c-2.19.26-2.19.26-2.19-1.76V8.48c0-1.38 0-1.38 1.41-1.38 2.44 0 4.88.01 7.32 0 1 0 1.47-.41 1.46-1.25-.02-.78-.49-1.21-1.44-1.21-2.74-.01-5.48-.03-8.22 0-1.82.02-2.99 1.24-3 3.1-.01 3.57 0 7.13 0 10.7v54.13c-.13.07-.17.11-.22.12-2.38.04-1.94.18-1.94-1.87-.01-22.37-.01-44.74-.01-67.11 0-1.24 0-1.25 1.27-1.25 15.4 0 30.81 0 46.21.01 1.68 0 1.63-.32 1.62 1.64 0 .13-.02.26-.05.52H23.43c-1.08.02-1.57.41-1.57 1.25 0 .85.46 1.22 1.56 1.22h31.25c1.69 0 1.76.08 1.46 1.95H12.75c-2.4 0-3.45 1.05-3.45 3.46m42.65 67.04c0-1.96-.01-4.14.03-6.31 0-.16.34-.45.52-.45 2.12-.03 4.25-.02 6.35-.02l-6.9 6.78m8.87-20.31V70.3h-1.15c-2.36 0-4.72-.01-7.08 0-1.97.01-3.1 1.15-3.11 3.12-.01 2.74 0 5.48 0 8.34H12.87c-1.1 0-1.1 0-1.1-1.09-.01-22.69 0-45.39-.02-68.09 0-.8.21-1.08 1.06-1.08 15.68.03 31.36.02 47.03 0 .78 0 1.06.21 1.04 1.02-.05 2.11-.02 4.22-.02 6.38-5.9 1.02-10.6 3.92-13.94 8.89-2.43 3.61-3.5 7.62-3.38 11.97.26 9.81 7.82 18.18 17.28 19.48m2.32-21.59c-.15.32-.3.67-.54.91-4.04 4.06-8.09 8.11-12.18 12.2-4.77-5.08-6.29-14.23-1.54-21.47 5-7.65 14.28-9.65 21.12-6.97-.1.24-.19.5-.29.74-2.19 4.86-4.38 9.73-6.57 14.59m18.2 4.77c-5.23-1.39-10.45-2.77-15.76-4.18 2.25-5.01 4.47-9.94 6.69-14.87 7.07 3.41 10.72 12.11 9.07 19.05" fill="#fff" fill-rule="evenodd" data-name="Path 33749"/><path d="M42.85 71.15c-.28-.05-.58-.06-.93-.09v-.94c0-3.53 0-7.07-.01-10.6 0-1.28-.39-1.66-1.67-1.67h-4.53c0-1.48.01-2.82 0-4.16-.01-.97-.44-1.41-1.41-1.41-1.91-.02-3.83-.02-5.75-.01-1.03.01-1.44.41-1.45 1.45-.01 2.11 0 4.22 0 6.33v.96c-1.67 0-3.23-.01-4.78 0-.96.01-1.4.46-1.41 1.42-.02 1.45-.01 2.91-.01 4.36v4.25c-.15.04-.23.07-.31.07-1.24.09-1.73.46-1.71 1.3.03.82.56 1.17 1.81 1.18h21.37c.25 0 .5 0 .74-.02.7-.08 1.11-.48 1.12-1.18.02-.72-.38-1.12-1.07-1.24m-15.82-.07h-3.61v-7.53h3.61v7.53Zm6.17 0h-3.59V54.81h3.59v16.27Zm6.18-.02h-3.61v-10.7h3.61v10.7Z" fill="#fff" fill-rule="evenodd" data-name="Path 33750"/><path d="M44.41 22.76c-.3.05-.6.05-.9.05H20.17c-.9-.05-1.41-.54-1.38-1.3.03-.73.52-1.16 1.4-1.16 3.97-.01 7.94-.01 11.91-.01 3.89 0 7.78-.01 11.67.02.45.01 1.03.14 1.33.44.66.65.22 1.78-.69 1.96" fill="#fff" fill-rule="evenodd" data-name="Path 33751"/><path d="M39.78 30.5c.05.6-.18 1.09-.81 1.27-.28.08-.59.08-.89.08-5.86.01-11.72.01-17.58.01-.22 0-.44 0-.66-.04-.72-.1-1.06-.58-1.03-1.25.03-.68.4-1.15 1.13-1.16 1.4-.02 2.8-.02 4.19-.02h13.81c.3 0 .6 0 .9.04.6.09.9.51.94 1.07" fill="#fff" fill-rule="evenodd" data-name="Path 33752"/><path d="M37.17 39.65c.01.79-.51 1.26-1.48 1.26-5.15.01-10.3.02-15.45 0-1.11 0-1.7-.78-1.35-1.7.23-.61.71-.76 1.31-.76 2.6.01 5.2 0 7.8 0h7.64c1.02.01 1.51.4 1.53 1.2" fill="#fff" fill-rule="evenodd" data-name="Path 33753"/></g><defs><clipPath id="a"><path d="M0 0h84.196v84.24H0V0z" data-name="Rectangle 7051"/></clipPath></defs></svg>