<svg xmlns="http://www.w3.org/2000/svg" width="84.367" height="81.084" viewBox="0 0.001 84.367 81.084"><g data-name="Group 21900" clip-path="url(&quot;#a&quot;)"><path d="M68.119 8.336c.017 10.68.017 21.344 0 32.024 0 4.256-2.77 7.493-6.942 8.194-.317.05-.668.083-1.002.083-1.018 0-1.735-.634-1.769-1.552-.033-.917.618-1.585 1.67-1.685 3.07-.284 4.805-2.186 4.805-5.273.017-10.53.017-21.077 0-31.608 0-3.287-2.002-5.273-5.323-5.273H8.793c-3.605 0-5.54 1.902-5.54 5.474v31.206c0 3.572 1.935 5.474 5.54 5.474H20.34c.267 0 .534 0 .801.017.985.066 1.602.717 1.602 1.618 0 .902-.634 1.602-1.602 1.602-4.572.017-9.128.117-13.684-.05-4.105-.15-7.41-3.721-7.426-7.826-.034-10.948-.05-21.895 0-32.842.016-4.473 3.671-7.91 8.31-7.91 14.519-.017 29.038 0 43.573 0 2.637 0 5.273-.017 7.91 0 4.79.033 8.294 3.52 8.294 8.327" fill="#fff" fill-rule="evenodd" data-name="Path 33754"/><path d="M84.323 73.267c-.033 4.39-3.688 7.794-8.21 7.81-8.612.017-17.223 0-25.85 0H24.93c-5.29 0-8.694-3.387-8.694-8.66V54.192c0-.317-.034-.618.033-.918.184-.868.734-1.385 1.619-1.368.851.016 1.385.517 1.552 1.335.067.333.033.684.033 1.018V72.5c0 3.354 1.986 5.34 5.374 5.34h50.865c3.438 0 5.39-1.97 5.39-5.407V41.026c0-3.371-1.969-5.34-5.357-5.357-.867 0-1.752.034-2.636 0-1.035-.033-1.72-.684-1.72-1.602-.016-.918.652-1.619 1.686-1.619 1.586.017 3.204-.066 4.74.2 3.688.601 6.491 3.856 6.508 7.594.05 11.014.067 22.028 0 33.025" fill="#fff" fill-rule="evenodd" data-name="Path 33755"/><path d="M60.276 35.602c0 3.288-.885 5.524-2.654 7.393-1.135 1.218-2.32 2.37-3.504 3.521-.818.801-1.736.851-2.42.184-.684-.668-.651-1.652.1-2.436.985-1.018 2.02-2.003 3.004-3.021 2.586-2.62 2.586-6.642.033-9.178-2.553-2.537-6.592-2.52-9.178.05-1.352 1.335-2.687 2.67-4.022 4.005-2.637 2.687-2.754 6.274-.334 9.128.835.985.851 1.886.067 2.57-.768.65-1.635.5-2.487-.4-3.37-3.622-3.487-9.312-.15-13 1.736-1.903 3.521-3.755 5.457-5.424 3.088-2.67 6.675-3.22 10.397-1.535 3.721 1.702 5.54 4.772 5.69 8.143" fill="#fff" fill-rule="evenodd" data-name="Path 33756"/><path d="M46.374 54.243c-1.735 1.902-3.57 3.688-5.457 5.44-1.769 1.652-3.955 2.403-7.109 2.403-3.337-.167-6.408-1.969-8.11-5.707-1.686-3.721-1.118-7.26 1.502-10.397 1.101-1.301 2.386-2.47 3.621-3.671.751-.734 1.686-.734 2.353-.067.651.651.668 1.569-.067 2.337-1.068 1.134-2.186 2.22-3.27 3.32-2.57 2.637-2.587 6.676-.05 9.196 2.57 2.553 6.541 2.553 9.195-.017a297.45 297.45 0 0 0 4.589-4.59c2.586-2.653 2.687-6.207.317-9.044-.851-1.018-.885-1.886-.117-2.57.734-.668 1.702-.484 2.553.45 3.305 3.588 3.371 9.279.05 12.917" fill="#fff" fill-rule="evenodd" data-name="Path 33757"/><path d="M24.046 16.23c-2.07-.02-4.122-.02-6.191-.02-2.053 0-4.122 0-6.175.02-1.335 0-1.92.583-1.936 1.918v9.112c.017 1.335.6 1.918 1.936 1.918 4.105.018 8.227.018 12.35 0 1.334 0 1.918-.583 1.935-1.918v-9.112c-.017-1.335-.6-1.919-1.92-1.919m-1.384 9.644h-9.596v-6.375h9.596v6.375Z" fill="#fff" fill-rule="evenodd" data-name="Path 33758"/><path d="M74.61 69.73c0 .917-.684 1.601-1.718 1.601-2.086.034-4.189.017-6.275.017h-6.592c-4.189 0-8.377.017-12.566-.017-.5 0-1.185-.133-1.468-.467-.334-.384-.585-1.168-.418-1.602.2-.484.851-.984 1.385-1.101.868-.184 1.803-.05 2.72-.05h22.396c.267 0 .55-.017.818 0 1.034.05 1.719.7 1.719 1.618" fill="#fff" fill-rule="evenodd" data-name="Path 33759"/><path d="M58.39 11.388c-.017.968-.751 1.585-1.953 1.585H44.172c-1.252 0-2.003-.634-1.986-1.652.033-.984.75-1.585 1.952-1.585h12.266c1.251 0 2.002.634 1.986 1.652" fill="#fff" fill-rule="evenodd" data-name="Path 33760"/><path d="M42.169 69.78c-.033.967-.751 1.568-1.97 1.568H27.952c-1.252 0-2.003-.65-1.986-1.669.033-.984.75-1.568 1.97-1.568H40.2c1.251 0 2.002.65 1.969 1.669" fill="#fff" fill-rule="evenodd" data-name="Path 33761"/></g><defs><clipPath id="a"><path d="M0 0h84.366v81.085H0V0z" data-name="Rectangle 7052"/></clipPath></defs></svg>