<svg xmlns="http://www.w3.org/2000/svg" width="90.132" height="52.593" viewBox="0 -0.001 90.132 52.593"><g data-name="Group 21906" clip-path="url(&quot;#a&quot;)"><path d="M89.959 25.69c-1.038-7.526-7.555-13.811-15.11-14.273-3.978-.26-7.986-.115-11.965-.144h-1.125a805.74 805.74 0 0 0 1.903-8.42C64.123.923 63.374 0 61.384 0H17.47c-.346 0-.72.029-1.038.115a1.846 1.846 0 0 0-1.412 1.788c0 .836.576 1.586 1.441 1.788.375.086.808.086 1.211.086h41.925c-2.884 12.6-5.71 25.086-8.564 37.513-.202.029-.26.029-.317.029-2.855 0-5.738-.029-8.622.029-.72 0-1.038-.173-1.24-.923-1.182-3.892-4.7-6.516-8.823-6.603-3.892-.115-7.583 2.451-8.938 6.2-.144.403-.26.836-.404 1.297h-5.565c-1.24.029-2.104.779-2.104 1.874 0 1.096.836 1.846 2.104 1.874 1.586 0 3.172.03 4.758-.028.577 0 .865.115 1.038.75 1.153 4.007 4.815 6.775 8.938 6.804 4.153.029 7.814-2.653 9.025-6.69.202-.634.462-.864 1.125-.864 7.035.028 14.07.028 21.135.028h.807c1.846 5.017 4.902 7.497 9.256 7.526 4.354 0 7.353-2.393 9.285-7.526h2.71c1.269-.028 1.874-.519 2.105-1.758.548-2.855 1.067-5.71 1.615-8.564.374-2.047.807-4.066 1.21-6.084v-2.134c-.057-.26-.144-.548-.172-.836M31.887 48.844a5.6 5.6 0 0 1-5.565-5.623c0-3.172 2.451-5.651 5.623-5.623 3.114 0 5.565 2.451 5.565 5.565 0 3.172-2.48 5.68-5.623 5.68m41.32 0c-3.115-.028-5.623-2.594-5.623-5.708.028-3.057 2.537-5.537 5.622-5.537 3.143-.028 5.652 2.509 5.652 5.623 0 3.085-2.567 5.651-5.652 5.623m12.716-18.425c-.692 3.604-1.355 7.18-2.047 10.841h-1.442c-.577-2.45-1.903-4.469-4.037-5.91a9.156 9.156 0 0 0-5.248-1.529c-4.353.029-7.294 2.451-9.198 7.468h-8.996c1.99-8.736 3.98-17.444 5.969-26.18.173-.03.288-.059.375-.059 4.123 0 8.217-.057 12.34.03 6.113.115 11.275 4.497 12.543 10.466.375 1.672.058 3.258-.26 4.873" fill="#fff" fill-rule="evenodd" data-name="Path 33762"/><path d="M26.236 31.514c.26 1.27-.606 2.278-1.99 2.278-3.69.03-7.381 0-11.072 0-3.72 0-7.41.03-11.1 0-1.529 0-2.48-1.268-1.904-2.566.346-.865 1.067-1.182 1.96-1.182 3.346.029 6.69 0 10.035 0 3.979 0 7.958 0 11.937.029 1.182 0 1.932.519 2.134 1.441" fill="#fff" fill-rule="evenodd" data-name="Path 33763"/><path d="M26.236 20.298c.23 1.269-.606 2.22-2.047 2.22-3.057.03-6.142 0-9.227 0-3.028 0-6.055 0-9.054.03-.807 0-1.47-.231-1.874-.923-.663-1.125-.029-2.567 1.269-2.797.23-.058.46-.03.72-.03h18.022c1.24 0 2.018.52 2.19 1.5" fill="#fff" fill-rule="evenodd" data-name="Path 33764"/><path d="M26.265 9.457c-.03 1.038-.75 1.787-1.874 1.787-2.48.03-4.989 0-7.468 0v.03c-2.48 0-4.931 0-7.382-.03-1.355 0-2.134-.894-1.99-2.105.116-.893.837-1.585 1.817-1.614h15.023c1.124.029 1.903.836 1.874 1.932" fill="#fff" fill-rule="evenodd" data-name="Path 33765"/></g><defs><clipPath id="a"><path d="M0 0h90.132v52.593H0V0z" data-name="Rectangle 7053"/></clipPath></defs></svg>