<svg xmlns="http://www.w3.org/2000/svg" width="19.37" height="21.808"><g data-name="Group 21829" clip-path="url(&quot;#a&quot;)"><path d="M9.941 0c.433.121.74.42 1.047.727.754.752 1.515 1.497 2.282 2.235.08.077.218.132.33.134.872.01 1.746.004 2.619.006.907.002 1.475.569 1.479 1.472 0 .213.003.426-.002.639-.005.208-.12.334-.302.341-.186.007-.325-.125-.332-.337-.008-.227 0-.454-.003-.681-.005-.497-.298-.794-.797-.795-1.725-.002-3.45 0-5.174 0h-7.88c-.63 0-.895.263-.896.887 0 1.725.002 3.45-.002 5.175 0 .138.039.236.137.334 1.847 1.838 3.69 3.678 5.53 5.522.107.106.183.117.308.042.25-.149.506-.287.764-.42a1.312 1.312 0 0 1 1.246-.015c.266.133.53.274.784.429.134.081.213.068.323-.044.809-.817 1.625-1.627 2.439-2.44 1.025-1.022 2.048-2.047 3.077-3.066a.449.449 0 0 0 .144-.353c-.005-1.008-.003-2.016-.002-3.024 0-.07-.007-.144.008-.212.037-.174.146-.279.329-.268.18.01.289.116.297.299.009.184-.01.37.01.553.01.101.051.22.12.292.35.361.712.714 1.075 1.063.32.307.471.676.47 1.121-.002 3.585.001 7.17-.002 10.754-.001.868-.58 1.435-1.448 1.436-1.079.002-2.158 0-3.237 0-.063 0-.13.007-.19-.01-.162-.042-.257-.148-.25-.322.006-.164.102-.262.256-.297.068-.016.141-.009.212-.009h3.237c.39-.002.631-.178.753-.555l-.325-.183c-2.721-1.496-5.444-2.988-8.16-4.493-.369-.204-.685-.205-1.055 0-2.754 1.526-5.515 3.038-8.273 4.554-.068.037-.135.076-.2.113a.67.67 0 0 0 .63.56c.084.007.17.004.255.004h11.414c.341 0 .496.103.492.326-.004.217-.152.313-.484.313H1.495c-.926 0-1.49-.557-1.49-1.48-.003-1.873-.002-3.747-.001-5.621 0-.064-.002-.13.01-.191.03-.15.125-.237.277-.25.161-.012.28.058.325.215.025.087.025.182.025.273.002 1.619.001 3.237.001 4.856v.287l6.822-3.748L.672 9.315c-.01.124-.028.238-.029.352-.002 1.114 0 2.229-.001 3.343 0 .34-.107.497-.331.491-.216-.006-.307-.15-.307-.489 0-1.114.007-2.229-.004-3.343-.005-.485.156-.881.51-1.212.353-.33.696-.67 1.03-1.017a.498.498 0 0 0 .128-.31c.01-.852.004-1.704.006-2.556.002-.902.572-1.47 1.479-1.472.858-.002 1.717-.005 2.576.003.17.002.29-.045.41-.165.75-.746 1.51-1.48 2.26-2.227C8.7.41 9.005.122 9.43 0h.511Zm8.762 9.32-6.788 6.83 6.788 3.73V9.32ZM6.916 3.084h5.543c-.054-.06-.085-.097-.12-.131-.692-.681-1.384-1.363-2.079-2.042-.379-.37-.774-.365-1.156.008-.679.665-1.356 1.331-2.034 1.998-.048.047-.091.098-.154.167M1.659 9.321V8.268l-.533.521.533.532m16.051-.036.482-.467-.482-.507v.974Z" fill="#fff" fill-rule="evenodd" data-name="Path 33703"/><path d="M10.474 10.161c-.32.28-.673.442-1.097.38-.495-.072-.846-.358-1.078-.783-.314-.573-.357-1.177-.104-1.784.368-.886 1.228-1.177 2.161-.733.01-.056.015-.109.027-.16.041-.187.171-.292.348-.27.183.022.278.135.28.316.004.326 0 .653-.001.979-.001.497-.005.994-.003 1.49 0 .425.293.604.65.37.16-.104.303-.284.38-.462.694-1.614-.53-2.969-1.772-3.242-1.408-.31-2.848.634-3.09 2.039-.258 1.488.736 2.853 2.212 3.037.077.01.155.017.232.027.214.025.339.16.321.345-.017.183-.166.301-.378.289a3.272 3.272 0 0 1-1.438-.417 3.204 3.204 0 0 1-1.551-3.52c.312-1.365 1.512-2.403 2.87-2.486 1.491-.09 2.79.737 3.283 2.102.288.797.176 1.569-.209 2.302-.22.42-.585.665-1.069.713-.44.043-.746-.165-.974-.532m-.076-1.426c-.045-.192-.067-.392-.14-.573-.238-.593-.898-.69-1.314-.203-.406.474-.343 1.354.126 1.764.315.275.7.255.98-.059.233-.261.316-.58.348-.93" fill="#fff" fill-rule="evenodd" data-name="Path 33704"/></g><defs><clipPath id="a"><path d="M0 0h19.37v21.808H0V0z" data-name="Rectangle 6990"/></clipPath></defs></svg>