<svg xmlns="http://www.w3.org/2000/svg" width="20.786" height="20.879" viewBox="6.293 5.61 20.786 20.879"><path d="M24.05 8.644a10.286 10.286 0 0 0-7.32-3.034c-5.705 0-10.348 4.64-10.35 10.345 0 1.824.476 3.604 1.381 5.173l-1.468 5.361 5.487-1.439a10.345 10.345 0 0 0 4.945 1.26h.005c5.704 0 10.347-4.641 10.349-10.347a10.285 10.285 0 0 0-3.028-7.32m-7.321 15.92h-.004a8.592 8.592 0 0 1-4.378-1.199l-.314-.187-3.256.854.869-3.173-.204-.325a8.58 8.58 0 0 1-1.316-4.577c.002-4.741 3.861-8.599 8.606-8.599 2.298 0 4.457.897 6.082 2.522a8.546 8.546 0 0 1 2.517 6.084c-.002 4.742-3.86 8.6-8.602 8.6m4.718-6.441c.259.13.431.194.496.302.064.108.064.626-.151 1.229-.216.604-1.249 1.155-1.745 1.23-.446.066-1.01.094-1.63-.103a14.9 14.9 0 0 1-1.473-.545c-2.594-1.119-4.29-3.73-4.418-3.903-.13-.173-1.056-1.402-1.056-2.675 0-1.272.668-1.897.905-2.156a.95.95 0 0 1 .69-.323c.172 0 .344.001.495.009.16.007.372-.061.582.443.216.518.733 1.79.797 1.92.065.13.108.28.022.453-.086.172-.13.28-.259.43-.129.152-.272.338-.388.454-.13.129-.264.269-.113.527.151.26.67 1.106 1.438 1.792.988.88 1.822 1.153 2.08 1.282.259.13.41.108.56-.064.151-.173.647-.755.82-1.013.172-.26.344-.216.581-.13s1.508.711 1.767.84" fill="#fff" fill-rule="evenodd" data-name="Path 33706"/></svg>